PathFileType	4	(x/y/z)	TRC_MarkerData\Passive\Passive_Pref0003.trc
DataRate	CameraRate	NumFrames	NumMarkers	Units	OrigDataRate	OrigDataStartFrame	OrigNumFrames
240	240	10	50	mm	240	1	300
Frame#	Time	R_AC			L_AC			HEAD			STERN			C7			L_IC			R_IC			L_ASIS			R_ASIS			L_GT			R_GT			L_PSIS			R_PSIS			SACRAL			L_LAT_KNEE			L_MED_KNEE			R_LAT_KNEE			R_MED_KNEE			L_LAT_ANK			L_MED_ANK			R_LAT_ANK			R_MED_ANK			L_THIGH_PROX_POST			L_THIGH_PROX_ANT			L_THIGH_DIST_ANT			L_THIGH_DIST_POST			R_THIGH_PROX_POST			R_THIGH_PROX_ANT			R_THIGH_DIST_ANT			R_THIGH_DIST_POST			L_SHANK_PROX_POST			L_SHANK_PROX_ANT			L_SHANK_DIST_ANT			L_SHANK_DIST_POST			R_SHANK_PROX_POST			R_SHANK_PROX_ANT			R_SHANK_DIST_ANT			R_SHANK_DIST_POST			L_HEEL_LAT			L_HEEL_SUP			L_HEEL_MED			R_HEEL_LAT			R_HEEL_SUP			R_HEEL_MED			L_1ST_MET			L_5TH_MET			L_TOE			R_1ST_MET			R_5TH_MET			R_TOE			
		X1	Y1	Z1	X2	Y2	Z2	X3	Y3	Z3	X4	Y4	Z4	X5	Y5	Z5	X6	Y6	Z6	X7	Y7	Z7	X8	Y8	Z8	X9	Y9	Z9	X10	Y10	Z10	X11	Y11	Z11	X12	Y12	Z12	X13	Y13	Z13	X14	Y14	Z14	X15	Y15	Z15	X16	Y16	Z16	X17	Y17	Z17	X18	Y18	Z18	X19	Y19	Z19	X20	Y20	Z20	X21	Y21	Z21	X22	Y22	Z22	X23	Y23	Z23	X24	Y24	Z24	X25	Y25	Z25	X26	Y26	Z26	X27	Y27	Z27	X28	Y28	Z28	X29	Y29	Z29	X30	Y30	Z30	X31	Y31	Z31	X32	Y32	Z32	X33	Y33	Z33	X34	Y34	Z34	X35	Y35	Z35	X36	Y36	Z36	X37	Y37	Z37	X38	Y38	Z38	X39	Y39	Z39	X40	Y40	Z40	X41	Y41	Z41	X42	Y42	Z42	X43	Y43	Z43	X44	Y44	Z44	X45	Y45	Z45	X46	Y46	Z46	X47	Y47	Z47	X48	Y48	Z48	X49	Y49	Z49	X50	Y50	Z50	

1	0	-924.53	1493.3	444	-932.87	1522.4	52.069	-810.08	1806.9	263.81	-830.22	1465.6	248.49	-970.49	1555.7	250.87	-941.01	1062.5	83.452	-952.11	1083.7	425.95	-866.45	1008.1	128.73	-885.14	1001.6	398.39	-930.9	926.42	65.16	-993.96	944.35	438.07	-1080.9	1022.8	193.42	-1080.5	1037.1	300.68	-1093	1008.3	247.59	-751.16	563.21	121.66	-747.86	573.37	258.15	-1133.3	554.43	384.66	-1108	547.97	259.73	-600.33	135.82	129.57	-607.98	134.65	208.88	-1337.9	143.08	309.99	-1301.1	152.42	214.34	-897.3	773.94	85.945	-833.18	795.47	90.996	-805.52	726.34	104.49	-866.19	706.74	98.428	-1067.9	792.71	422.83	-1004.5	770.56	432.21	-1033.1	702.81	417.48	-1096.3	725.12	405.06	-722.88	517.8	129.07	-692.75	549.33	144.7	-670.18	504.46	150.7	-703.17	467.55	133.22	-1268.5	437.65	359.45	-1204.4	419.97	383.83	-1223.8	349.16	368.27	-1287.4	364.65	346.71	-621.56	40.521	125.97	-648.11	55.832	161.07	-623.62	29.722	192.4	-1415.5	113.65	277.62	-1407.8	136.59	241.4	-1398.1	105.89	212.36	-432.93	142.79	238.75	-436.1	136.23	131.81	-390.48	177.6	219.72	-1182	41.989	245.01	-1230.3	40.62	349.44	-1142.2	42.21	300.64
2	0.0041806	-919.27	1493	443.59	-927.82	1521.8	51.619	-805.1	1806.5	263.27	-825.07	1465.1	248.05	-965.41	1555.2	250.42	-935.65	1061.9	83.24	-946.69	1083.2	425.71	-860.72	1007.6	128.5	-879.61	1001.1	398.22	-925.35	925.67	65.046	-988.71	943.94	437.81	-1075.3	1022.3	193.07	-1074.8	1036.5	300.28	-1087.4	1007.8	247.23	-747.42	561.85	121.95	-744.2	572	258.43	-1128.5	554.26	384.61	-1103.1	547.49	259.66	-597.93	134.38	130.17	-605.58	133.23	209.58	-1336.4	144.46	310.28	-1299.4	153.67	214.65	-892.44	772.9	85.881	-828.44	794.09	90.866	-800.94	724.97	104.22	-861.98	705.57	98.673	-1062.8	792.51	422.46	-999.55	770.32	432.01	-1028.2	702.56	417.33	-1091.3	724.93	404.71	-719.3	516.3	129.4	-689.06	547.75	145.03	-666.65	502.81	151.08	-699.75	466	133.58	-1264.4	438.58	359.47	-1200.5	420.33	383.89	-1220.5	349.72	368.37	-1284.1	365.75	346.75	-619.97	39.709	126.61	-646.18	55.361	161.66	-622.16	29.059	192.99	-1414.4	115.82	277.54	-1406.5	139.17	241.72	-1396.9	108.26	212.51	-430.58	140.29	239.48	-433.74	133.72	132.54	-387.9	174.83	220.43	-1181.8	41.967	245.04	-1230.1	40.693	349.53	-1142	42.112	300.64
3	0.0083612	-913.79	1492.6	443.17	-922.54	1521.2	51.147	-799.91	1806.1	262.7	-819.7	1464.7	247.59	-960.12	1554.8	249.94	-930.01	1061.3	83.01	-941.01	1082.7	425.45	-854.73	1007	128.26	-873.82	1000.7	398.05	-919.56	924.89	64.923	-983.21	943.52	437.52	-1069.5	1021.7	192.7	-1068.9	1035.9	299.86	-1081.6	1007.3	246.85	-743.52	560.47	122.24	-740.42	570.6	258.73	-1123.5	554.08	384.57	-1097.9	546.99	259.61	-595.5	132.92	130.74	-603.16	131.78	210.27	-1334.7	145.93	310.59	-1297.6	154.98	214.98	-887.38	771.84	85.819	-823.49	792.67	90.732	-796.18	723.55	103.94	-857.59	704.38	98.92	-1057.5	792.31	422.08	-994.32	770.07	431.8	-1023	702.31	417.18	-1086.1	724.73	404.34	-715.57	514.78	129.74	-685.24	546.14	145.38	-662.99	501.13	151.47	-696.21	464.42	133.96	-1260.1	439.54	359.49	-1196.5	420.71	383.96	-1217.1	350.31	368.48	-1280.5	366.89	346.79	-618.37	38.89	127.22	-644.22	54.91	162.21	-620.7	28.41	193.55	-1413.3	118.11	277.49	-1405.2	141.89	242.04	-1395.7	110.76	212.68	-428.23	137.67	240.24	-431.35	131.12	133.31	-385.28	171.93	221.19	-1181.7	41.94	245.06	-1229.9	40.771	349.63	-1141.9	42.012	300.65
4	0.012542	-908.13	1492.2	442.73	-917.09	1520.6	50.656	-794.54	1805.7	262.11	-814.15	1464.2	247.11	-954.65	1554.3	249.45	-924.11	1060.7	82.764	-935.11	1082.2	425.17	-848.51	1006.4	128.01	-867.81	1000.2	397.87	-913.56	924.11	64.791	-977.48	943.1	437.22	-1063.5	1021.2	192.3	-1062.8	1035.3	299.42	-1075.5	1006.8	246.45	-739.5	559.1	122.54	-736.56	569.18	259.04	-1118.3	553.9	384.54	-1092.4	546.46	259.57	-593.05	131.45	131.28	-600.74	130.3	210.95	-1333	147.47	310.92	-1295.7	156.35	215.34	-882.15	770.78	85.759	-818.36	791.23	90.595	-791.26	722.1	103.69	-853.03	703.18	99.166	-1052	792.09	421.68	-988.88	769.81	431.59	-1017.6	702.05	417.03	-1080.7	724.53	403.97	-711.73	513.26	130.09	-681.3	544.52	145.76	-659.23	499.43	151.89	-692.58	462.83	134.34	-1255.6	440.55	359.53	-1192.2	421.1	384.04	-1213.5	350.92	368.6	-1276.7	368.09	346.84	-616.79	38.078	127.79	-642.27	54.489	162.71	-619.29	27.79	194.07	-1412	120.54	277.47	-1403.7	144.72	242.37	-1394.3	113.38	212.86	-425.89	134.96	241.02	-428.94	128.44	134.11	-382.67	168.94	222	-1181.5	41.907	245.08	-1229.7	40.853	349.73	-1141.8	41.911	300.65
5	0.016722	-902.31	1491.9	442.27	-911.48	1520	50.146	-789.01	1805.3	261.5	-808.44	1463.8	246.61	-949.03	1553.8	248.93	-917.96	1060.1	82.5	-929.01	1081.7	424.88	-842.1	1005.8	127.74	-861.61	999.74	397.69	-907.38	923.32	64.649	-971.55	942.68	436.91	-1057.3	1020.7	191.88	-1056.5	1034.8	298.96	-1069.2	1006.3	246.03	-735.37	557.75	122.84	-732.63	567.77	259.35	-1112.8	553.7	384.52	-1086.7	545.91	259.56	-590.61	129.98	131.78	-598.35	128.81	211.59	-1331.2	149.08	311.28	-1293.7	157.78	215.73	-876.78	769.73	85.701	-813.08	789.78	90.454	-786.23	720.62	103.45	-848.34	701.98	99.404	-1046.3	791.87	421.27	-983.22	769.56	431.36	-1012	701.79	416.87	-1075	724.31	403.59	-707.81	511.76	130.44	-677.27	542.9	146.15	-655.39	497.74	152.33	-688.87	461.26	134.73	-1250.9	441.58	359.59	-1187.7	421.51	384.14	-1209.7	351.56	368.74	-1272.8	369.32	346.92	-615.25	37.284	128.3	-640.34	54.109	163.14	-617.94	27.21	194.54	-1410.7	123.11	277.48	-1402.1	147.65	242.7	-1392.9	116.13	213.06	-423.61	132.18	241.83	-426.56	125.69	134.92	-380.09	165.85	222.85	-1181.4	41.868	245.1	-1229.5	40.942	349.84	-1141.7	41.809	300.65
6	0.020903	-896.38	1491.6	441.8	-905.75	1519.4	49.621	-783.36	1804.9	260.88	-802.6	1463.4	246.11	-943.28	1553.3	248.4	-911.61	1059.6	82.221	-922.74	1081.3	424.58	-835.53	1005.2	127.47	-855.24	999.28	397.5	-901.06	922.54	64.496	-965.45	942.26	436.57	-1051	1020.2	191.44	-1050	1034.2	298.48	-1062.8	1005.8	245.6	-731.16	556.45	123.14	-728.67	566.37	259.67	-1107.2	553.49	384.52	-1080.8	545.33	259.57	-588.21	128.54	132.22	-596.03	127.34	212.2	-1329.3	150.75	311.66	-1291.5	159.26	216.14	-871.3	768.71	85.645	-807.67	788.34	90.31	-781.11	719.13	103.23	-843.54	700.8	99.632	-1040.4	791.65	420.85	-977.38	769.3	431.13	-1006.2	701.52	416.72	-1069.2	724.09	403.21	-703.81	510.3	130.79	-673.17	541.31	146.57	-651.5	496.07	152.77	-685.11	459.72	135.11	-1246	442.64	359.66	-1183.1	421.93	384.26	-1205.8	352.22	368.91	-1268.7	370.58	347.01	-613.77	36.517	128.76	-638.46	53.777	163.49	-616.67	26.679	194.95	-1409.2	125.8	277.54	-1400.4	150.67	243.04	-1391.3	118.98	213.27	-421.4	129.35	242.64	-424.22	122.91	135.75	-377.57	162.69	223.73	-1181.2	41.822	245.12	-1229.3	41.037	349.95	-1141.6	41.707	300.65
7	0.025084	-890.35	1491.3	441.31	-899.92	1518.8	49.081	-777.6	1804.5	260.23	-796.66	1463	245.59	-937.44	1552.9	247.86	-905.06	1059	81.926	-916.32	1080.8	424.25	-828.83	1004.6	127.18	-848.73	998.82	397.3	-894.62	921.78	64.333	-959.19	941.86	436.22	-1044.6	1019.8	190.98	-1043.4	1033.7	297.99	-1056.2	1005.3	245.15	-726.89	555.2	123.43	-724.68	565.02	259.98	-1101.3	553.27	384.55	-1074.7	544.74	259.62	-585.86	127.12	132.61	-593.79	125.89	212.77	-1327.3	152.48	312.08	-1289.3	160.79	216.59	-865.72	767.74	85.588	-802.15	786.93	90.162	-775.91	717.66	103.03	-838.64	699.66	99.843	-1034.3	791.43	420.42	-971.37	769.05	430.89	-1000.2	701.25	416.56	-1063.1	723.85	402.84	-699.76	508.9	131.13	-669.01	539.77	146.99	-647.56	494.43	153.23	-681.31	458.23	135.47	-1241	443.71	359.75	-1178.4	422.36	384.41	-1201.8	352.9	369.09	-1264.5	371.87	347.12	-612.36	35.784	129.14	-636.63	53.497	163.76	-615.49	26.204	195.3	-1407.5	128.61	277.65	-1398.5	153.79	243.38	-1389.6	121.95	213.51	-419.28	126.48	243.46	-421.94	120.1	136.57	-375.14	159.49	224.63	-1181	41.771	245.13	-1229.1	41.14	350.07	-1141.5	41.603	300.65
8	0.029264	-884.26	1491	440.81	-894.02	1518.3	48.528	-771.76	1804.2	259.58	-790.64	1462.7	245.06	-931.53	1552.4	247.3	-898.34	1058.5	81.615	-909.77	1080.4	423.92	-822.02	1004	126.89	-842.09	998.38	397.09	-888.1	921.05	64.157	-952.8	941.47	435.86	-1038.1	1019.4	190.5	-1036.7	1033.2	297.49	-1049.6	1004.9	244.69	-722.56	554.03	123.72	-720.67	563.72	260.29	-1095.3	553.03	384.6	-1068.4	544.13	259.69	-583.59	125.75	132.93	-591.65	124.48	213.3	-1325.2	154.27	312.52	-1287	162.36	217.06	-860.07	766.82	85.526	-796.55	785.57	90.009	-770.66	716.22	102.85	-833.65	698.58	100.03	-1028.1	791.2	419.99	-965.2	768.79	430.64	-994.09	700.98	416.41	-1057	723.61	402.47	-695.68	507.57	131.46	-664.82	538.28	147.42	-643.6	492.85	153.68	-677.5	456.81	135.83	-1235.8	444.8	359.87	-1173.4	422.79	384.57	-1197.6	353.6	369.3	-1260.1	373.19	347.26	-611.02	35.092	129.46	-634.89	53.272	163.96	-614.41	25.79	195.58	-1405.8	131.56	277.8	-1396.4	156.98	243.73	-1387.8	125.02	213.76	-417.27	123.6	244.27	-419.75	117.28	137.39	-372.81	156.27	225.54	-1180.8	41.715	245.14	-1228.8	41.254	350.2	-1141.4	41.499	300.65
9	0.033445	-878.12	1490.8	440.29	-888.06	1517.8	47.963	-765.85	1803.9	258.92	-784.56	1462.4	244.53	-925.57	1552	246.73	-891.47	1058.1	81.29	-903.12	1080	423.57	-815.12	1003.5	126.58	-835.36	997.95	396.88	-881.5	920.36	63.969	-946.29	941.09	435.49	-1031.6	1019	190.01	-1029.9	1032.7	296.99	-1042.8	1004.5	244.22	-718.19	552.93	123.98	-716.66	562.49	260.59	-1089.1	552.78	384.68	-1062	543.5	259.8	-581.4	124.43	133.19	-589.6	123.12	213.78	-1323	156.11	313	-1284.5	163.96	217.56	-854.36	765.97	85.456	-790.88	784.27	89.849	-765.37	714.84	102.69	-828.6	697.57	100.2	-1021.7	790.96	419.56	-958.88	768.54	430.39	-987.8	700.71	416.27	-1050.6	723.35	402.12	-691.57	506.32	131.77	-660.61	536.86	147.85	-639.63	491.34	154.12	-673.68	455.47	136.16	-1230.4	445.9	360.02	-1168.4	423.23	384.77	-1193.3	354.31	369.54	-1255.5	374.52	347.43	-609.78	34.447	129.71	-633.22	53.103	164.07	-613.43	25.438	195.8	-1403.8	134.63	278.01	-1394.2	160.26	244.09	-1385.9	128.2	214.04	-415.37	120.73	245.06	-417.65	114.48	138.19	-370.59	153.03	226.45	-1180.6	41.656	245.14	-1228.5	41.381	350.33	-1141.3	41.392	300.65
10	0.037625	-871.95	1490.6	439.77	-882.06	1517.3	47.387	-759.9	1803.7	258.26	-778.43	1462.2	243.99	-919.56	1551.6	246.14	-884.48	1057.6	80.95	-896.36	1079.7	423.21	-808.17	1002.9	126.27	-828.54	997.54	396.65	-874.87	919.73	63.768	-939.67	940.72	435.11	-1025	1018.7	189.51	-1023	1032.3	296.48	-1036	1004.1	243.76	-713.8	551.94	124.23	-712.63	561.35	260.86	-1082.8	552.52	384.79	-1055.3	542.84	259.94	-579.31	123.16	133.4	-587.67	121.82	214.22	-1320.7	158	313.52	-1281.9	165.6	218.11	-848.61	765.22	85.373	-785.16	783.05	89.68	-760.04	713.52	102.53	-823.49	696.64	100.34	-1015.2	790.71	419.13	-952.43	768.29	430.14	-981.37	700.43	416.13	-1044.2	723.08	401.78	-687.45	505.16	132.06	-656.37	535.53	148.25	-635.65	489.9	154.55	-669.85	454.21	136.46	-1224.9	447.01	360.2	-1163.1	423.66	385	-1188.8	355.03	369.82	-1250.9	375.88	347.64	-608.62	33.854	129.9	-631.65	52.991	164.13	-612.54	25.152	195.96	-1401.7	137.82	278.26	-1391.8	163.61	244.47	-1383.8	131.48	214.33	-413.59	117.87	245.82	-415.64	111.71	138.96	-368.47	149.82	227.35	-1180.4	41.595	245.15	-1228.3	41.523	350.46	-1141.2	41.282	300.65
